<svg width="120" height="120" version="1.1" viewBox="0 0 31.75 31.75" xmlns="http://www.w3.org/2000/svg">
 <g stroke="#e6e6e6">
  <rect x="1.4026" y="2.8146" width="28.945" height="26.121" ry="1.9888" fill-opacity="0" stroke-linecap="square" stroke-miterlimit="4.1833" stroke-width="1.7622" style="paint-order:markers fill stroke"/>
  <g>
   <path d="m4.4392 12.314h1.0324v9.525q0 0.29176 0.084467 0.48054 0.084467 0.15446 0.20648 0.17163 0.11262 0 0.19709-0.17163 0.093853-0.17163 0.093853-0.46338v-12.168q0-0.44621-0.24402-0.42905-0.24402 0.017112-0.2534 0.42905-0.028156 1.0126-0.34725 1.4588-0.27217 0.37757-0.79775 0.37757-0.21586 0-0.20648 0.39473 0.00939 0.39473 0.23463 0.39473z" stroke-width="1.2994"/>
   <g stroke-width="1.2996px">
    <path d="m11.15 9.2593q-0.9573 0-1.5204 1.0812-0.49742 0.96108-0.49742 2.3684v0.44622q0 0.29176 0.084467 0.46338 0.084467 0.15446 0.20648 0.15446 0.12201 0 0.20648-0.15446 0.093853-0.15446 0.093853-0.41189v-0.4977q0-1.0297 0.35664-1.7162 0.39418-0.7723 1.0699-0.7723 0.67574 0 1.0793 0.7723 0.35664 0.68648 0.35664 1.7162 0 1.2528-0.42234 2.1281-0.32848 0.65216-1.267 1.7162-0.98545 1.0812-1.4453 2.3512-0.5068 1.3901-0.49742 3.278h4.1014q0.12201 0 0.19709-0.15446 0.07508-0.13729 0.07508-0.32608 0-0.20595-0.07508-0.34324t-0.19709-0.1373h-3.4819q0.065697-1.2357 0.3848-2.0251 0.36603-0.92676 1.3609-2.0595l0.1877-0.24027q0.91976-1.0641 1.2107-1.6819 0.45988-0.96108 0.45988-2.5057 0-1.4073-0.5068-2.3684-0.5725-1.0812-1.5204-1.0812z"/>
    <path d="m15.495 11.422q-0.24402 0-0.3848 0.30892-0.12201 0.2746-0.12201 0.66932 0 0.37757 0.12201 0.65216 0.14078 0.30892 0.3848 0.30892 0.23463 0 0.37541-0.30892 0.13139-0.2746 0.13139-0.65216 0-0.39473-0.13139-0.66932-0.14078-0.30892-0.37541-0.30892zm0 6.9507q-0.24402 0-0.3848 0.29176-0.12201 0.27459-0.12201 0.66932 0 0.37757 0.12201 0.66932 0.14078 0.30892 0.3848 0.30892 0.23463 0 0.37541-0.30892 0.13139-0.29176 0.13139-0.66932 0-0.39473-0.13139-0.66932-0.14078-0.29176-0.37541-0.29176z"/>
    <path d="m19.859 9.2593q-1.0324 0-1.633 2.0423-0.53496 1.8535-0.53496 4.5651 0 2.6945 0.53496 4.548 0.60066 2.0595 1.633 2.0595 1.023 0 1.6237-2.0595 0.54435-1.8535 0.54435-4.548 0-2.7116-0.54435-4.5651-0.60066-2.0423-1.6237-2.0423zm0 0.96108q0.74144 0 1.1825 1.7505 0.39418 1.5789 0.39418 3.913 0 2.2997-0.39418 3.8786-0.44111 1.7505-1.1825 1.7505-0.76021 0-1.1919-1.7505-0.3848-1.5789-0.3848-3.8786 0-2.334 0.3848-3.913 0.43172-1.7505 1.1919-1.7505z"/>
    <path d="m25.378 9.2593q-1.0324 0-1.633 2.0423-0.53496 1.8535-0.53496 4.5651 0 2.6945 0.53496 4.548 0.60066 2.0595 1.633 2.0595 1.023 0 1.6237-2.0595 0.54434-1.8535 0.54434-4.548 0-2.7116-0.54434-4.5651-0.60066-2.0423-1.6237-2.0423zm0 0.96108q0.74144 0 1.1825 1.7505 0.39418 1.5789 0.39418 3.913 0 2.2997-0.39418 3.8786-0.44111 1.7505-1.1825 1.7505-0.76021 0-1.1919-1.7505-0.3848-1.5789-0.3848-3.8786 0-2.334 0.3848-3.913 0.43172-1.7505 1.1919-1.7505z"/>
   </g>
  </g>
 </g>
</svg>
